<svg width="121" height="121" viewBox="0 0 121 121" fill="none" xmlns="http://www.w3.org/2000/svg">
<circle cx="60.5" cy="60.5" r="52.5" stroke="black" stroke-opacity="0.25" stroke-width="15"/>
<path d="M60.5 8C67.3944 8 74.2213 9.35795 80.5909 11.9963C86.9605 14.6347 92.748 18.5018 97.6231 23.3769C102.498 28.252 106.365 34.0395 109.004 40.4091C111.642 46.7787 113 53.6056 113 60.5C113 67.3944 111.642 74.2213 109.004 80.5909C106.365 86.9605 102.498 92.748 97.6231 97.6231C92.748 102.498 86.9605 106.365 80.5909 109.004C74.2213 111.642 67.3944 113 60.5 113C53.6056 113 46.7787 111.642 40.4091 109.004C34.0395 106.365 28.252 102.498 23.3769 97.6231C18.5018 92.748 14.6347 86.9605 11.9963 80.5909C9.35795 74.2213 8 67.3944 8 60.5C8 53.6056 9.35796 46.7787 11.9963 40.4091C14.6347 34.0395 18.5018 28.2519 23.3769 23.3769C28.252 18.5018 34.0396 14.6347 40.4092 11.9963C46.7787 9.35794 53.6056 8 60.5 8L60.5 8Z" stroke="#F47741" stroke-width="15" stroke-linejoin="bevel"/>
</svg>
