<svg width="121" height="121" viewBox="0 0 121 121" fill="none" xmlns="http://www.w3.org/2000/svg">
<circle cx="60.5" cy="60.5" r="52.5" stroke="#C4C4C4" stroke-width="15"/>
<path d="M60.5 8C72.717 8 84.5514 12.2607 93.9648 20.048" stroke="#F47741" stroke-width="15" stroke-linejoin="bevel"/>
<path d="M48.5663 54.2119V67H46.3426V58.29C46.3426 57.6455 46.369 57.1182 46.4217 56.708C46.1698 56.9775 45.9266 57.2148 45.6922 57.4199L43.9432 58.9316L42.6776 57.4375L46.5272 54.2119H48.5663ZM59.1826 54.2119V67H56.959V58.29C56.959 57.6455 56.9854 57.1182 57.0381 56.708C56.7861 56.9775 56.543 57.2148 56.3086 57.4199L54.5596 58.9316L53.2939 57.4375L57.1436 54.2119H59.1826ZM75.1163 54.3174L67.3732 67.6064L66.1339 66.8857L73.8771 53.5967L75.1163 54.3174ZM66.5734 53.8955C67.1183 53.8955 67.6486 54.0361 68.1642 54.3174C68.6857 54.5986 69.09 55 69.3771 55.5215C69.6701 56.043 69.8165 56.585 69.8165 57.1475C69.8165 57.71 69.673 58.249 69.3859 58.7646C69.1046 59.2803 68.7062 59.6816 68.1906 59.9688C67.6749 60.2559 67.1359 60.3994 66.5734 60.3994C66.0109 60.3994 65.4718 60.2559 64.9562 59.9688C64.4406 59.6816 64.0392 59.2803 63.7521 58.7646C63.465 58.249 63.3214 57.71 63.3214 57.1475C63.3214 56.585 63.465 56.043 63.7521 55.5215C64.0451 55 64.4523 54.5986 64.9738 54.3174C65.4952 54.0361 66.0285 53.8955 66.5734 53.8955ZM66.5734 55.5566C66.1281 55.5566 65.7501 55.7119 65.4396 56.0225C65.1349 56.333 64.9826 56.708 64.9826 57.1475C64.9826 57.5869 65.1378 57.9619 65.4484 58.2725C65.7589 58.583 66.1339 58.7383 66.5734 58.7383C67.0128 58.7383 67.3878 58.583 67.6984 58.2725C68.0089 57.9619 68.1642 57.5869 68.1642 57.1475C68.1642 56.708 68.0089 56.333 67.6984 56.0225C67.3878 55.7119 67.0128 55.5566 66.5734 55.5566ZM74.6417 60.8828C75.1867 60.8828 75.7169 61.0234 76.2326 61.3047C76.754 61.5859 77.1583 61.9873 77.4454 62.5088C77.7384 63.0303 77.8849 63.5723 77.8849 64.1348C77.8849 64.6973 77.7413 65.2363 77.4542 65.752C77.173 66.2676 76.7745 66.6689 76.2589 66.9561C75.7433 67.2432 75.2042 67.3867 74.6417 67.3867C74.0792 67.3867 73.5402 67.2432 73.0245 66.9561C72.5089 66.6689 72.1076 66.2676 71.8204 65.752C71.5333 65.2363 71.3898 64.6973 71.3898 64.1348C71.3898 63.5723 71.5333 63.0303 71.8204 62.5088C72.1134 61.9873 72.5206 61.5859 73.0421 61.3047C73.5636 61.0234 74.0968 60.8828 74.6417 60.8828ZM74.6417 62.5439C74.1964 62.5439 73.8185 62.6992 73.5079 63.0098C73.2033 63.3203 73.0509 63.6953 73.0509 64.1348C73.0509 64.5742 73.2062 64.9492 73.5167 65.2598C73.8273 65.5703 74.2023 65.7256 74.6417 65.7256C75.0812 65.7256 75.4562 65.5703 75.7667 65.2598C76.0773 64.9492 76.2326 64.5742 76.2326 64.1348C76.2326 63.6953 76.0773 63.3203 75.7667 63.0098C75.4562 62.6992 75.0812 62.5439 74.6417 62.5439Z" fill="#F47741"/>
</svg>
