<svg xmlns="http://www.w3.org/2000/svg" width="50.776" height="39.122" viewBox="0 0 50.776 39.122">
  <g id="Group_2911" data-name="Group 2911" transform="translate(-1164 -515)">
    <g id="Group_2900" data-name="Group 2900" transform="translate(0 -47)">
      <g id="Outline" transform="translate(1162 551)">
        <g id="Group_2897" data-name="Group 2897" transform="translate(2 11)">
          <path id="Path_314" data-name="Path 314" d="M51.93,15.231a.846.846,0,0,0-.846.846V46.543h-4.6a71.987,71.987,0,0,0-16.174,1.842,1.686,1.686,0,0,1-1.784-.7,19.237,19.237,0,0,1,10.038-2.83h9.977A.846.846,0,0,0,49.391,44V38.081a.846.846,0,1,0-1.693,0v5.078h-9.13a20.926,20.926,0,0,0-10.334,2.718V22.848a.846.846,0,1,0-1.693,0V45.876a20.923,20.923,0,0,0-10.334-2.717H7.078V12.693H20.11a6.436,6.436,0,0,1,6.432,6.436.846.846,0,0,0,1.693,0,6.436,6.436,0,0,1,6.432-6.436H47.7v22a.846.846,0,0,0,1.693,0V11.846A.846.846,0,0,0,48.545,11H34.666a8.135,8.135,0,0,0-7.278,4.512A8.135,8.135,0,0,0,20.11,11H6.231a.846.846,0,0,0-.846.846V44a.846.846,0,0,0,.846.846h9.977a19.234,19.234,0,0,1,10.036,2.828,1.693,1.693,0,0,1-1.774.708A71.991,71.991,0,0,0,8.288,46.543h-4.6V16.078a.846.846,0,1,0-1.693,0V47.389a.846.846,0,0,0,.846.846H8.288a70.316,70.316,0,0,1,15.789,1.8,3.368,3.368,0,0,0,3.311-1.071,3.366,3.366,0,0,0,3.3,1.073,70.362,70.362,0,0,1,15.8-1.8H51.93a.846.846,0,0,0,.846-.846V16.078A.846.846,0,0,0,51.93,15.231Z" transform="translate(-2 -11)" fill="#091a52"/>
          <path id="Path_315" data-name="Path 315" d="M26,19.365A8.106,8.106,0,0,0,21.494,18H11.846a.846.846,0,0,0,0,1.693h9.647a6.411,6.411,0,0,1,3.57,1.081A.846.846,0,1,0,26,19.365Z" transform="translate(-3.384 -12.076)" fill="#091a52"/>
          <path id="Path_316" data-name="Path 316" d="M49.36,18H39.712A8.108,8.108,0,0,0,35.2,19.365a.846.846,0,1,0,.939,1.408,6.416,6.416,0,0,1,3.57-1.081H49.36a.846.846,0,0,0,0-1.693Z" transform="translate(-7.047 -12.076)" fill="#091a52"/>
          <path id="Path_325" data-name="Path 325" d="M21.494,43H11.846a.846.846,0,1,0,0,1.693h9.647a6.411,6.411,0,0,1,3.57,1.081A.846.846,0,1,0,26,44.365,8.106,8.106,0,0,0,21.494,43Z" transform="translate(-3.384 -15.919)" fill="#091a52"/>
          <path id="Path_326" data-name="Path 326" d="M49.36,43H39.712A8.108,8.108,0,0,0,35.2,44.365a.846.846,0,0,0,.939,1.408,6.416,6.416,0,0,1,3.57-1.081H49.36a.846.846,0,0,0,0-1.693Z" transform="translate(-7.047 -15.919)" fill="#091a52"/>
        </g>
      </g>
    </g>
    <g id="percent" transform="translate(1173 520.072)">
      <path id="Path_332" data-name="Path 332" d="M66.952,7.007a.723.723,0,0,0-.973.317L60.6,17.9a.723.723,0,1,0,1.29.656l5.38-10.581A.723.723,0,0,0,66.952,7.007Z" transform="translate(-57.602 0)" fill="#091a52"/>
      <path id="Path_333" data-name="Path 333" d="M5.487,26.671a2.743,2.743,0,1,0-2.743,2.743A2.747,2.747,0,0,0,5.487,26.671Zm-2.743,1.3a1.3,1.3,0,1,1,1.3-1.3A1.3,1.3,0,0,1,2.743,27.968Z" transform="translate(0 -16.18)" fill="#091a52"/>
      <path id="Path_334" data-name="Path 334" d="M152.249,125.58a2.743,2.743,0,1,0,2.743,2.743A2.746,2.746,0,0,0,152.249,125.58Zm0,4.04a1.3,1.3,0,1,1,1.3-1.3A1.3,1.3,0,0,1,152.249,129.62Z" transform="translate(-142.296 -112.93)" fill="#091a52"/>
    </g>
    <g id="dollar-symbol" transform="translate(1059.348 525)">
      <path id="Path_335" data-name="Path 335" d="M122.624,6.813a18.06,18.06,0,0,0-1.834-.83,4.118,4.118,0,0,1-1.007-.564A.876.876,0,0,1,120,3.861a1.767,1.767,0,0,1,.617-.127,4.679,4.679,0,0,1,2.317.459c.366.177.486.121.61-.26.13-.4.239-.812.359-1.218a.425.425,0,0,0-.276-.567,5.891,5.891,0,0,0-1.462-.437c-.663-.1-.663-.105-.666-.771,0-.939,0-.939-.945-.939-.136,0-.273,0-.409,0-.44.012-.514.09-.527.533-.006.2,0,.4,0,.6,0,.589-.006.579-.57.784a3.143,3.143,0,0,0-2.3,2.912,2.984,2.984,0,0,0,1.688,2.853,18.664,18.664,0,0,0,2.11.948,3.134,3.134,0,0,1,.768.452,1.053,1.053,0,0,1-.251,1.846,2.527,2.527,0,0,1-1.354.177,6.043,6.043,0,0,1-2.063-.617c-.381-.2-.493-.146-.623.266-.112.356-.211.716-.31,1.075-.133.483-.084.6.378.824a6.588,6.588,0,0,0,1.859.533c.5.081.517.1.524.623,0,.235,0,.474.006.709a.421.421,0,0,0,.452.477c.347.006.7.006,1.044,0a.4.4,0,0,0,.431-.449c0-.322.015-.647,0-.97a.512.512,0,0,1,.443-.582,3.5,3.5,0,0,0,1.825-1.171A3.292,3.292,0,0,0,122.624,6.813Z" transform="translate(20 0)" fill="#091a52"/>
    </g>
  </g>
</svg>
