<svg xmlns="http://www.w3.org/2000/svg" width="45.219" height="47.56" viewBox="0 0 45.219 47.56">
  <g id="support" transform="translate(-694 294)">
    <g id="Group_506" data-name="Group 506">
      <g id="Group_505" data-name="Group 505">
        <path id="Path_242" data-name="Path 242" d="M61.843,33.781l-4.672-1.471-1.677-3.17a9.989,9.989,0,0,0,2.914-5.382l.209-1.185h1.789a2.875,2.875,0,0,0,2.949-2.787V13.933C63.355,6.251,56.74,0,48.609,0,40.458,0,33.864,6.233,33.864,13.933v5.852a2.807,2.807,0,0,0,1.966,2.627V23.5a2.875,2.875,0,0,0,2.949,2.787h.863A10.033,10.033,0,0,0,41.291,28.7c.139.151.284.3.433.44l-1.676,3.168-4.672,1.471A13.745,13.745,0,0,0,26,46.631a.957.957,0,0,0,.983.929H70.236a.957.957,0,0,0,.983-.929A13.745,13.745,0,0,0,61.843,33.781Zm-.454-14a.958.958,0,0,1-.983.929h-1.5c.25-1.829.416-3.775.483-5.692,0-.054,0-.107.005-.16h1.995Zm-24.575.929a.958.958,0,0,1-.983-.929V14.862h2q0,.145.011.292v.01h0c.069,1.864.233,3.76.477,5.549h-1.5Zm1.966,3.716A.958.958,0,0,1,37.8,23.5v-.929H38.6l.209,1.185c.04.225.089.45.146.673ZM37.8,13h-1.93c.5-6.226,6-11.147,12.742-11.147,6.716,0,12.238,4.921,12.742,11.147h-1.93a9.7,9.7,0,0,0-9.932-9.289H47.73A9.7,9.7,0,0,0,37.8,13Zm3.2,11.425a50.325,50.325,0,0,1-1.18-9.015l1.323-1.667a7.041,7.041,0,0,1,5.117-2.591A18.213,18.213,0,0,0,55.941,15.6l1.447.2a54.118,54.118,0,0,1-.578,5.677v0c-.09.576-.161.946-.342,1.981A8.057,8.057,0,0,1,50.542,29.8a8.448,8.448,0,0,1-3.865,0,7.929,7.929,0,0,1-4.818-3.509h2a2.948,2.948,0,0,0,2.78,1.858h1.966a2.791,2.791,0,1,0,0-5.573H46.643a2.944,2.944,0,0,0-2.782,1.858Zm5.566,7.247a10.424,10.424,0,0,0,3.656.078L48.48,33.491Zm.568,3.164-3.118,3.116a34.4,34.4,0,0,1-2.2-4.823l1.171-2.213Zm6.943-4.234,1.337,2.527a34.385,34.385,0,0,1-2.2,4.824L49.871,34.8ZM28.005,45.7A11.842,11.842,0,0,1,36,35.543l4.138-1.3a36.307,36.307,0,0,0,2.8,5.735l.006.009h0a37.115,37.115,0,0,0,2.691,3.883L46.839,45.7Zm20.6-.828-1.333-2.022q-.022-.034-.048-.066a35.346,35.346,0,0,1-2.215-3.127l3.506-3.5,3.694,3.491a35.308,35.308,0,0,1-2.223,3.139C49.942,42.846,50.011,42.75,48.609,44.874Zm1.77.828,1.209-1.834a37.1,37.1,0,0,0,2.71-3.914l.014-.025,0,0a36.273,36.273,0,0,0,2.769-5.686l4.138,1.3A11.842,11.842,0,0,1,69.213,45.7H50.38Z" transform="translate(668 -294)" fill="#fff"/>
      </g>
    </g>
  </g>
</svg>
