<svg xmlns="http://www.w3.org/2000/svg" width="44.687" height="48.11" viewBox="0 0 44.687 48.11">
  <g id="Group_508" data-name="Group 508" transform="translate(-157 -3494)">
    <g id="mortgage" transform="translate(138.781 3494)">
      <path id="Path_239" data-name="Path 239" d="M62.493,27.751,57.842,23.1a1.41,1.41,0,0,0-1.993,0l-.983.983V5.638a1.41,1.41,0,0,0-1.409-1.409H45V1.409A1.41,1.41,0,0,0,43.59,0H29.495a1.409,1.409,0,0,0-1.409,1.409V4.228H19.628a1.409,1.409,0,0,0-1.409,1.409V46.7a1.409,1.409,0,0,0,1.409,1.409H53.456A1.41,1.41,0,0,0,54.866,46.7v-9.33l7.627-7.627a1.409,1.409,0,0,0,0-1.993ZM52.047,45.291H21.038V7.047h7.047V9.866a1.409,1.409,0,0,0,1.409,1.409H43.59A1.41,1.41,0,0,0,45,9.866V7.047h7.047V26.9l-7.1,7.1a1.409,1.409,0,0,0-.413,1v4.651a1.409,1.409,0,0,0,1.409,1.409H50.59a1.409,1.409,0,0,0,1-.413l.46-.46Z" transform="translate(0 0)" fill="#fff"/>
    </g>
    <path id="dollar-sign" d="M88.734,14.871a4.637,4.637,0,0,0-2.019-4.033,12.09,12.09,0,0,0-3.541-1.493c-2.556-.775-3.3-1.183-3.3-2.405,0-1.362,1.769-1.846,3.284-1.846a6.334,6.334,0,0,1,3.161.851l1.563-2.42A8.956,8.956,0,0,0,84.052,2.26V0H81.169V2.418c-2.562.564-4.177,2.238-4.177,4.521A4.327,4.327,0,0,0,78.963,10.7a12.094,12.094,0,0,0,3.376,1.4c2.507.758,3.525,1.22,3.514,2.749v.011c0,1.284-1.7,1.74-3.158,1.74a5.4,5.4,0,0,1-3.722-1.5l-2.094,1.981a8.038,8.038,0,0,0,4.291,2.255V21.7h2.883V19.391C86.9,18.983,88.732,17.269,88.734,14.871Z" transform="translate(92.704 3510.94)" fill="#fff"/>
  </g>
</svg>
