<svg xmlns="http://www.w3.org/2000/svg" width="36.588" height="49.305" viewBox="0 0 36.588 49.305">
  <g id="calculator" transform="translate(-66.031)">
    <g id="Group_429" data-name="Group 429" transform="translate(72.412 5.514)">
      <path id="Path_169" data-name="Path 169" d="M134.583,56.192H158.41v9.689H134.583Z" transform="translate(-134.583 -56.192)" fill="#fff"/>
    </g>
    <g id="Group_430" data-name="Group 430" transform="translate(66.031)">
      <path id="Path_170" data-name="Path 170" d="M101.656,0H66.994a.963.963,0,0,0-.963.963V48.342a.963.963,0,0,0,.963.963h34.662a.963.963,0,0,0,.963-.963V.963A.963.963,0,0,0,101.656,0Zm-.963,47.379H67.957V1.926h32.736Z" transform="translate(-66.031)" fill="#fff"/>
      <path id="Path_171" data-name="Path 171" d="M130.627,216.186h22.191a.968.968,0,0,0,.954-.981V192.377a.968.968,0,0,0-.954-.981H130.627a.968.968,0,0,0-.954.981V215.2A.968.968,0,0,0,130.627,216.186Zm.954-11.414h9.188v9.451h-9.188Zm20.284,9.451h-9.188v-9.451h9.188Zm0-11.414h-9.188v-9.452h9.188Zm-20.284-9.452h9.188v9.452h-9.188Z" transform="translate(-123.429 -173.548)" fill="#fff"/>
      <path id="Path_172" data-name="Path 172" d="M177.624,237h-.385v-.385a.981.981,0,0,0-1.962,0V237h-.385a.981.981,0,1,0,0,1.962h.385v.385a.981.981,0,1,0,1.962,0v-.385h.385a.981.981,0,1,0,0-1.962Z" transform="translate(-163.55 -212.987)" fill="#fff"/>
      <path id="Path_173" data-name="Path 173" d="M181.6,354.283a.982.982,0,0,0-1.388,0l-.272.272-.272-.272a.981.981,0,1,0-1.388,1.388l.272.272-.272.272a.981.981,0,1,0,1.388,1.388l.272-.272.272.272a.981.981,0,0,0,1.388-1.388l-.272-.272.272-.272A.981.981,0,0,0,181.6,354.283Z" transform="translate(-167.231 -319.96)" fill="#fff"/>
      <path id="Path_174" data-name="Path 174" d="M291.218,251.522h2.733a.981.981,0,1,0,0-1.962h-2.733a.981.981,0,1,0,0,1.962Z" transform="translate(-268.705 -225.546)" fill="#fff"/>
      <path id="Path_175" data-name="Path 175" d="M291.218,381.728h2.733a.981.981,0,1,0,0-1.962h-2.733a.981.981,0,1,0,0,1.962Z" transform="translate(-268.705 -343.223)" fill="#fff"/>
      <path id="Path_176" data-name="Path 176" d="M291.218,347.728h2.733a.981.981,0,1,0,0-1.962h-2.733a.981.981,0,1,0,0,1.962Z" transform="translate(-268.705 -312.494)" fill="#fff"/>
    </g>
  </g>
</svg>
