<svg xmlns="http://www.w3.org/2000/svg" width="44.687" height="48.11" viewBox="0 0 44.687 48.11">
  <g id="Group_497" data-name="Group 497" transform="translate(-127 -2931)">
    <g id="mortgage" transform="translate(108.781 2931)">
      <path id="Path_237" data-name="Path 237" d="M167.146,407h-7.517a1.409,1.409,0,0,0,0,2.819h7.517a1.409,1.409,0,0,0,0-2.819Z" transform="translate(-126.845 -368.756)" fill="#fff"/>
      <path id="Path_238" data-name="Path 238" d="M167.146,347h-7.517a1.409,1.409,0,1,0,0,2.819h7.517a1.409,1.409,0,1,0,0-2.819Z" transform="translate(-126.845 -314.394)" fill="#fff"/>
      <path id="Path_239" data-name="Path 239" d="M62.493,27.751,57.842,23.1a1.41,1.41,0,0,0-1.993,0l-.983.983V5.638a1.41,1.41,0,0,0-1.409-1.409H45V1.409A1.41,1.41,0,0,0,43.59,0H29.495a1.409,1.409,0,0,0-1.409,1.409V4.228H19.628a1.409,1.409,0,0,0-1.409,1.409V46.7a1.409,1.409,0,0,0,1.409,1.409H53.456A1.41,1.41,0,0,0,54.866,46.7v-9.33l7.627-7.627a1.409,1.409,0,0,0,0-1.993ZM52.047,45.291H21.038V7.047h7.047V9.866a1.409,1.409,0,0,0,1.409,1.409H43.59A1.41,1.41,0,0,0,45,9.866V7.047h7.047V26.9l-7.1,7.1a1.409,1.409,0,0,0-.413,1v4.651a1.409,1.409,0,0,0,1.409,1.409H50.59a1.409,1.409,0,0,0,1-.413l.46-.46Z" transform="translate(0 0)" fill="#fff"/>
      <path id="Path_240" data-name="Path 240" d="M135.921,160.8a1.409,1.409,0,0,0-.63-1.891l-7.517-3.759a1.41,1.41,0,0,0-1.261,0L119,158.907a1.409,1.409,0,0,0,1.1,2.588v6.659a1.409,1.409,0,0,0,1.409,1.409h11.276a1.41,1.41,0,0,0,1.409-1.409V161.5A1.409,1.409,0,0,0,135.921,160.8Zm-7.368,5.947v-1.409a1.409,1.409,0,0,0-2.819,0v1.409h-2.819V160.1l4.228-2.114,4.228,2.114v6.646Z" transform="translate(-90.601 -140.435)" fill="#fff"/>
    </g>
  </g>
</svg>
