<svg xmlns="http://www.w3.org/2000/svg" width="45.527" height="49.471" viewBox="0 0 45.527 49.471">
  <g id="wallet" transform="translate(-20.408 0)">
    <g id="Group_433" data-name="Group 433" transform="translate(37.701 8.155)">
      <path id="Path_183" data-name="Path 183" d="M204.122,92.482l2.645-2.643a2.208,2.208,0,0,1,0-3.124l-4.256-4.253a2.212,2.212,0,0,1-3.127,0l-10.027,10.02h14.766Z" transform="translate(-189.357 -82.463)" fill="#f47741"/>
    </g>
    <g id="Group_435" data-name="Group 435" transform="translate(20.408 -0.001)">
      <g id="Group_434" data-name="Group 434" transform="translate(0 0)">
        <path id="Path_184" data-name="Path 184" d="M62.223,38.354v7.683a1.507,1.507,0,0,1-1.509,1.5H28.347V19.859H60.714a1.507,1.507,0,0,1,1.509,1.5v7.683h1.94V21.361a3.444,3.444,0,0,0-2.788-3.371l1.612-1.605a2.928,2.928,0,0,0,0-4.154L51.563.858a2.961,2.961,0,0,0-4.17,0L30.248,17.927H23.857a3.445,3.445,0,0,0-3.449,3.434V46.037a3.445,3.445,0,0,0,3.449,3.434H60.714a3.445,3.445,0,0,0,3.449-3.434V38.354h-1.94ZM48.764,2.225a1.014,1.014,0,0,1,1.428,0L61.616,13.6a1,1,0,0,1,0,1.419l-2.922,2.909h-25.7ZM26.407,47.538h-2.55a1.507,1.507,0,0,1-1.509-1.5V21.361a1.507,1.507,0,0,1,1.509-1.5h2.55Z" transform="translate(-20.408 0.001)" fill="#f47741"/>
      </g>
    </g>
    <path id="Path_185" data-name="Path 185" d="M333.01,300.892H322.748a5.155,5.155,0,0,1,0-10.311H333.01Z" transform="translate(-267.075 -261.819)" fill="#f47741"/>
    <g id="Group_436" data-name="Group 436" transform="translate(52.611 30.865)">
      <path id="Path_186" data-name="Path 186" d="M352.148,321.421a2.944,2.944,0,1,1,2.946-2.944A2.949,2.949,0,0,1,352.148,321.421Zm0-4.117a1.172,1.172,0,1,0,1.174,1.172A1.174,1.174,0,0,0,352.148,317.3Z" transform="translate(-349.202 -315.532)" fill="#fff"/>
    </g>
    <path id="dollar-sign" d="M85.187,10.422A3.249,3.249,0,0,0,83.772,7.6,8.473,8.473,0,0,0,81.29,6.549c-1.791-.543-2.311-.829-2.311-1.686,0-.954,1.24-1.294,2.3-1.294a4.439,4.439,0,0,1,2.215.6l1.1-1.7a6.276,6.276,0,0,0-2.686-.886V0h-2.02V1.695a3.3,3.3,0,0,0-2.927,3.168A3.032,3.032,0,0,0,78.339,7.5a8.475,8.475,0,0,0,2.366.984c1.757.531,2.471.855,2.462,1.926v.008c0,.9-1.192,1.219-2.213,1.219a3.787,3.787,0,0,1-2.609-1.051l-1.468,1.388a5.633,5.633,0,0,0,3.007,1.58v1.652h2.02V13.589C83.9,13.3,85.185,12.1,85.187,10.422Z" transform="translate(-39.34 26.737)" fill="#f47741"/>
  </g>
</svg>
