<svg id="Group_485" data-name="Group 485" xmlns="http://www.w3.org/2000/svg" width="42.982" height="49.039" viewBox="0 0 42.982 49.039">
  <g id="real-estate" transform="translate(0 0)">
    <g id="Group_348" data-name="Group 348" transform="translate(12.473 20.65)">
      <path id="Path_126" data-name="Path 126" d="M176.339,215.6h-10.95a3.528,3.528,0,0,1-3.543,3.5v10.613a7.093,7.093,0,0,0,4.22,6.467l4.8,2.145,4.8-2.145a7.093,7.093,0,0,0,4.22-6.467V219.1A3.528,3.528,0,0,1,176.339,215.6Z" transform="translate(-161.846 -215.596)" fill="#f47741"/>
    </g>
    <g id="Group_349" data-name="Group 349" transform="translate(0 0)">
      <path id="Path_127" data-name="Path 127" d="M226.52,310.2a.958.958,0,0,0-1.305,1.4l1.69,1.573a.958.958,0,0,0,.653.257.917.917,0,0,0,.1-.005.958.958,0,0,0,.684-.405l2.35-3.377a.958.958,0,0,0-1.572-1.094l-1.72,2.47Z" transform="translate(-206.396 -278.623)" fill="#fff"/>
      <path id="Path_128" data-name="Path 128" d="M74.294,17.534l-3.924-3.6V5.634a.958.958,0,0,0-.949-.958l-6.109-.053H63.3a.958.958,0,0,0-.958.958V7.452L55.731,1.009a.954.954,0,0,0-.081-.07,4.463,4.463,0,0,0-5.477,0q-.032.025-.061.052L31.931,17.735a.958.958,0,0,0-.309.7v7.274a.958.958,0,0,0,1.607.7l1.563-1.439V46.163a2.879,2.879,0,0,0,2.876,2.876H68.558a2.879,2.879,0,0,0,2.876-2.876V25.334L73,26.772a.958.958,0,0,0,1.606-.7V18.239A.957.957,0,0,0,74.294,17.534Zm-4.775,28.63a.961.961,0,0,1-.96.96H37.667a.961.961,0,0,1-.96-.96V23.215l16.2-14.922L69.519,23.572Zm3.17-22.279L53.56,6.286a.958.958,0,0,0-1.3,0L33.538,23.529v-4.67l17.84-16.43a2.547,2.547,0,0,1,3.058-.007l8.2,7.987a.958.958,0,0,0,1.626-.686V6.547l4.193.036V14.35a.958.958,0,0,0,.31.705l3.924,3.6v5.225Z" transform="translate(-31.622 0)" fill="#f47741"/>
    </g>
  </g>
</svg>
