<svg id="XMLID_2461_" xmlns="http://www.w3.org/2000/svg" width="50.518" height="50.519" viewBox="0 0 50.518 50.519">
  <path id="XMLID_2462_" d="M120,299.213h4.464V309.63H120Z" transform="translate(-108.095 -269.528)" fill="#f47741"/>
  <path id="XMLID_2463_" d="M270,269.213h4.464v13.393H270Z" transform="translate(-243.214 -242.505)" fill="#f47741"/>
  <path id="XMLID_2466_" d="M195,194.213h4.464v20.834H195Z" transform="translate(-175.654 -174.945)" fill="#f47741"/>
  <path id="XMLID_2476_" d="M345,119.213h4.464v28.275H345Z" transform="translate(-310.773 -107.386)" fill="#f47741"/>
  <path id="XMLID_2477_" d="M45.257,39.3l-2.1,2.1,1.669,1.669H7.441V5.7L9.109,7.366l2.1-2.1L5.953,0,.691,5.261l2.1,2.1L4.464,5.7V43.078H0v2.976H4.464v4.464H7.441V46.054H44.821l-1.669,1.669,2.1,2.1,5.261-5.261Z" transform="translate(0 0)" fill="#f47741"/>
  <path id="XMLID_2479_" d="M113.7,58.874l18.987-11.684h7.02V44.213h-7.862l-19.7,12.126Z" transform="translate(-101.014 -39.827)" fill="#f47741"/>
</svg>
