<svg xmlns="http://www.w3.org/2000/svg" width="37.842" height="50.995" viewBox="0 0 37.842 50.995">
  <g id="calculator" transform="translate(-66.031)">
    <g id="Group_429" data-name="Group 429" transform="translate(72.63 5.702)">
      <path id="Path_169" data-name="Path 169" d="M134.583,56.192h24.643V66.213H134.583Z" transform="translate(-134.583 -56.192)" fill="#f47741"/>
    </g>
    <g id="Group_430" data-name="Group 430" transform="translate(66.031)">
      <path id="Path_170" data-name="Path 170" d="M102.877,0H67.027a1,1,0,0,0-1,1V50a1,1,0,0,0,1,1h35.85a1,1,0,0,0,1-1V1A1,1,0,0,0,102.877,0Zm-1,49H68.023V1.992h33.858Z" transform="translate(-66.031)" fill="#f47741"/>
      <path id="Path_171" data-name="Path 171" d="M130.66,217.036h22.952a1,1,0,0,0,.987-1.015v-23.61a1,1,0,0,0-.987-1.015H130.66a1,1,0,0,0-.987,1.015v23.61A1,1,0,0,0,130.66,217.036Zm.987-11.8h9.5v9.775h-9.5Zm20.979,9.775h-9.5v-9.775h9.5Zm0-11.8h-9.5v-9.775h9.5Zm-20.979-9.776h9.5V203.2h-9.5Z" transform="translate(-123.215 -172.936)" fill="#f47741"/>
      <path id="Path_172" data-name="Path 172" d="M177.751,237.047h-.4v-.4a1.015,1.015,0,0,0-2.03,0v.4h-.4a1.015,1.015,0,1,0,0,2.03h.4v.4a1.015,1.015,0,1,0,2.03,0v-.4h.4a1.015,1.015,0,1,0,0-2.03Z" transform="translate(-163.195 -212.211)" fill="#f47741"/>
      <path id="Path_173" data-name="Path 173" d="M181.719,354.293a1.015,1.015,0,0,0-1.435,0l-.282.282-.282-.282a1.015,1.015,0,1,0-1.435,1.435l.282.282-.282.282a1.015,1.015,0,1,0,1.435,1.435l.282-.282.282.282a1.015,1.015,0,0,0,1.435-1.435l-.282-.282.282-.282A1.015,1.015,0,0,0,181.719,354.293Z" transform="translate(-166.862 -318.794)" fill="#f47741"/>
      <path id="Path_174" data-name="Path 174" d="M291.252,251.59h2.827a1.015,1.015,0,1,0,0-2.03h-2.827a1.015,1.015,0,1,0,0,2.03Z" transform="translate(-267.967 -224.723)" fill="#f47741"/>
      <path id="Path_175" data-name="Path 175" d="M291.252,381.8h2.827a1.015,1.015,0,1,0,0-2.03h-2.827a1.015,1.015,0,1,0,0,2.03Z" transform="translate(-267.967 -341.97)" fill="#f47741"/>
      <path id="Path_176" data-name="Path 176" d="M291.252,347.8h2.827a1.015,1.015,0,1,0,0-2.03h-2.827a1.015,1.015,0,1,0,0,2.03Z" transform="translate(-267.967 -311.354)" fill="#f47741"/>
    </g>
  </g>
</svg>
