<svg width="16" height="20" viewBox="0 0 16 20" fill="none" xmlns="http://www.w3.org/2000/svg">
<path fill-rule="evenodd" clip-rule="evenodd" d="M10 2.40561V2.71206C12.8915 3.6218 15 6.45347 15 9.80576V15.0916C15.5523 15.0916 16 15.5393 16 16.0916V16.1487C16 16.7326 15.5267 17.2059 14.9428 17.2059H1.05716C0.473308 17.2059 0 16.7326 0 16.1487V16.0916C0 15.5393 0.447715 15.0916 1 15.0916V9.80576C1 6.45347 3.10851 3.6218 6 2.71206V2.40561C6 1.2379 6.8954 0.291283 8 0.291283C9.1046 0.291283 10 1.2379 10 2.40561ZM3 15.0916H13V9.80576C13 6.88649 10.7614 4.51994 8 4.51994C5.23858 4.51994 3 6.88649 3 9.80576V15.0916ZM10 17.2059H6C6 18.3736 6.8954 19.3202 8 19.3202C9.1046 19.3202 10 18.3736 10 17.2059Z" fill="#8F92A1"/>
</svg>
