<svg xmlns="http://www.w3.org/2000/svg" width="37.842" height="50.995" viewBox="0 0 37.842 50.995"><defs><style>.a{fill:#f47741;}</style></defs><g transform="translate(-66.031)"><g transform="translate(72.63 5.702)"><path class="a" d="M134.583,56.192h24.643V66.213H134.583Z" transform="translate(-134.583 -56.192)"/></g><g transform="translate(66.031)"><path class="a" d="M102.877,0H67.027a1,1,0,0,0-1,1V50a1,1,0,0,0,1,1h35.85a1,1,0,0,0,1-1V1A1,1,0,0,0,102.877,0Zm-1,49H68.023V1.992h33.858Z" transform="translate(-66.031)"/><path class="a" d="M130.66,217.036h22.952a1,1,0,0,0,.987-1.015v-23.61a1,1,0,0,0-.987-1.015H130.66a1,1,0,0,0-.987,1.015v23.61A1,1,0,0,0,130.66,217.036Zm.987-11.8h9.5v9.775h-9.5Zm20.979,9.775h-9.5v-9.775h9.5Zm0-11.8h-9.5v-9.775h9.5Zm-20.979-9.776h9.5V203.2h-9.5Z" transform="translate(-123.215 -172.936)"/><path class="a" d="M177.751,237.047h-.4v-.4a1.015,1.015,0,0,0-2.03,0v.4h-.4a1.015,1.015,0,1,0,0,2.03h.4v.4a1.015,1.015,0,1,0,2.03,0v-.4h.4a1.015,1.015,0,1,0,0-2.03Z" transform="translate(-163.195 -212.211)"/><path class="a" d="M181.719,354.293a1.015,1.015,0,0,0-1.435,0l-.282.282-.282-.282a1.015,1.015,0,1,0-1.435,1.435l.282.282-.282.282a1.015,1.015,0,1,0,1.435,1.435l.282-.282.282.282a1.015,1.015,0,1,0,1.435-1.435l-.282-.282.282-.282A1.015,1.015,0,0,0,181.719,354.293Z" transform="translate(-166.862 -318.794)"/><path class="a" d="M291.252,251.59h2.827a1.015,1.015,0,1,0,0-2.03h-2.827a1.015,1.015,0,1,0,0,2.03Z" transform="translate(-267.967 -224.723)"/><path class="a" d="M291.252,381.8h2.827a1.015,1.015,0,1,0,0-2.03h-2.827a1.015,1.015,0,1,0,0,2.03Z" transform="translate(-267.967 -341.97)"/><path class="a" d="M291.252,347.8h2.827a1.015,1.015,0,1,0,0-2.03h-2.827a1.015,1.015,0,1,0,0,2.03Z" transform="translate(-267.967 -311.354)"/></g></g></svg>