<svg width="24" height="24" viewBox="0 0 24 24" fill="none" xmlns="http://www.w3.org/2000/svg">
<path d="M20.12 7.71L15.29 2.88C14.7279 2.31723 13.9654 2.0007 13.17 2H6C5.20435 2 4.44129 2.31607 3.87868 2.87868C3.31607 3.44129 3 4.20435 3 5V19C3 19.7956 3.31607 20.5587 3.87868 21.1213C4.44129 21.6839 5.20435 22 6 22H18C18.7956 22 19.5587 21.6839 20.1213 21.1213C20.6839 20.5587 21 19.7956 21 19V9.83C20.9993 9.03462 20.6828 8.27207 20.12 7.71ZM18.59 9H15C14.7348 9 14.4804 8.89464 14.2929 8.70711C14.1054 8.51957 14 8.26522 14 8V4.41L18.59 9ZM18 20H6C5.73478 20 5.48043 19.8946 5.29289 19.7071C5.10536 19.5196 5 19.2652 5 19V5C5 4.73478 5.10536 4.48043 5.29289 4.29289C5.48043 4.10536 5.73478 4 6 4H12V8C12 8.79565 12.3161 9.55871 12.8787 10.1213C13.4413 10.6839 14.2044 11 15 11H19V19C19 19.2652 18.8946 19.5196 18.7071 19.7071C18.5196 19.8946 18.2652 20 18 20Z" fill="#BDBDBD"/>
</svg>
