<svg width="17" height="20" viewBox="0 0 17 20" fill="none" xmlns="http://www.w3.org/2000/svg">
<path d="M9.99999 18.2396C9.99999 18.5197 9.89463 18.7882 9.7071 18.9863C9.51956 19.1843 9.26521 19.2956 8.99999 19.2956H3C2.20435 19.2956 1.44129 18.9618 0.878679 18.3677C0.31607 17.7736 0 16.9678 0 16.1276V3.45573C0 2.61553 0.31607 1.80975 0.878679 1.21564C1.44129 0.621527 2.20435 0.28776 3 0.28776H8.99999C9.26521 0.28776 9.51956 0.399015 9.7071 0.597052C9.89463 0.795088 9.99999 1.06368 9.99999 1.34375C9.99999 1.62382 9.89463 1.89241 9.7071 2.09045C9.51956 2.28848 9.26521 2.39974 8.99999 2.39974H3C2.73478 2.39974 2.48043 2.511 2.29289 2.70903C2.10535 2.90707 2 3.17566 2 3.45573V16.1276C2 16.4077 2.10535 16.6763 2.29289 16.8743C2.48043 17.0723 2.73478 17.1836 3 17.1836H8.99999C9.26521 17.1836 9.51956 17.2949 9.7071 17.4929C9.89463 17.6909 9.99999 17.9595 9.99999 18.2396ZM16.6 9.15807L12.6 4.93411C12.523 4.84268 12.4292 4.76882 12.3242 4.71707C12.2193 4.66532 12.1054 4.63677 11.9896 4.63317C11.8739 4.62957 11.7586 4.651 11.6509 4.69614C11.5433 4.74128 11.4455 4.80919 11.3636 4.89568C11.2817 4.98217 11.2174 5.08543 11.1746 5.19912C11.1319 5.3128 11.1116 5.43452 11.115 5.55678C11.1184 5.67905 11.1454 5.79929 11.1945 5.91013C11.2435 6.02096 11.3134 6.12005 11.4 6.2013L13.8 8.73568H5.99999C5.73478 8.73568 5.48042 8.84693 5.29289 9.04497C5.10535 9.24301 4.99999 9.5116 4.99999 9.79167C4.99999 10.0717 5.10535 10.3403 5.29289 10.5384C5.48042 10.7364 5.73478 10.8477 5.99999 10.8477H13.8L11.4 13.382C11.256 13.5531 11.1793 13.7759 11.1857 14.0047C11.1921 14.2335 11.281 14.4511 11.4343 14.613C11.5876 14.7749 11.7936 14.8688 12.0103 14.8755C12.227 14.8822 12.4379 14.8013 12.6 14.6492L16.6 10.4253C16.7588 10.257 16.8479 10.0292 16.8479 9.79167C16.8479 9.55415 16.7588 9.32631 16.6 9.15807Z" fill="#8F92A1"/>
</svg>
