<svg xmlns="http://www.w3.org/2000/svg" width="48" height="48" viewBox="0 0 48 48"><defs><style>.a{fill:#0cc4d4;}</style></defs><g transform="translate(0 0)"><g transform="translate(0 0)"><path class="a" d="M40.968,7.027A24,24,0,1,0,48,23.995,24,24,0,0,0,40.968,7.027ZM36.347,33.432l0,0v-.008l-1.216,1.208a6.4,6.4,0,0,1-6.04,1.728,21.266,21.266,0,0,1-6.176-2.768,28.535,28.535,0,0,1-4.872-3.928,28.754,28.754,0,0,1-3.64-4.416,22.4,22.4,0,0,1-2.736-5.536,6.4,6.4,0,0,1,1.6-6.536l1.424-1.424a1.016,1.016,0,0,1,1.437,0l0,0,4.5,4.5a1.016,1.016,0,0,1,0,1.437l0,0-2.64,2.64a2.152,2.152,0,0,0-.224,2.8,30.875,30.875,0,0,0,3.16,3.688,30.686,30.686,0,0,0,4.16,3.5,2.168,2.168,0,0,0,2.768-.24L30.4,27.483a1.016,1.016,0,0,1,1.437,0l0,0,4.5,4.512A1.016,1.016,0,0,1,36.347,33.432Z" transform="translate(0 0)"/></g></g></svg>