<svg xmlns="http://www.w3.org/2000/svg" width="14.808" height="18.225" viewBox="0 0 14.808 18.225"><defs><style>.a{fill:#fff;}</style></defs><g transform="translate(-48.004)"><g transform="translate(48.004)"><path class="a" d="M55.656,0C50.66,0,48,3.2,48,6.691c0,1.619.9,3.637,2.352,4.277.22.1.339.057.388-.147.043-.155.234-.9.326-1.253a.322.322,0,0,0-.077-.317,4.151,4.151,0,0,1-.862-2.519,4.91,4.91,0,0,1,5.229-4.8c2.848,0,4.84,1.85,4.84,4.5,0,2.99-1.582,5.059-3.638,5.059a1.629,1.629,0,0,1-1.717-2,21.657,21.657,0,0,0,.961-3.679,1.413,1.413,0,0,0-1.463-1.555c-1.158,0-2.1,1.147-2.1,2.687a3.831,3.831,0,0,0,.346,1.639s-1.146,4.629-1.359,5.494a12.294,12.294,0,0,0,.084,4.038.12.12,0,0,0,.219.056,14.352,14.352,0,0,0,1.886-3.553c.141-.521.721-2.631.721-2.631A3.149,3.149,0,0,0,56.8,13.255c3.49,0,6.012-3.068,6.012-6.875C62.8,2.73,59.676,0,55.656,0Z" transform="translate(-48.004)"/></g></g></svg>