<svg xmlns="http://www.w3.org/2000/svg" width="35.405" height="29.568" viewBox="0 0 35.405 29.568"><defs><style>.a{fill:#0cc4d4;}</style></defs><g transform="translate(35.405 37.426) rotate(180)"><g transform="translate(0 7.858)"><path class="a" d="M11.332,21.258a9.381,9.381,0,0,0-2.592-.378,8.146,8.146,0,0,0-3.25.666c.817-2.991,2.78-8.152,6.69-8.733a.929.929,0,0,0,.758-.668l.855-3.056a.929.929,0,0,0-.768-1.17,6.491,6.491,0,0,0-.874-.059c-4.693,0-9.341,4.9-11.3,11.913-1.151,4.115-1.489,10.3,1.347,14.2a8.467,8.467,0,0,0,6.881,3.459h.036a8.237,8.237,0,0,0,2.221-16.167Z" transform="translate(0 -7.858)"/><path class="a" d="M64.909,25.148a8.256,8.256,0,0,0-4.952-3.89,9.381,9.381,0,0,0-2.592-.378,8.148,8.148,0,0,0-3.251.666c.817-2.991,2.78-8.152,6.69-8.733a.929.929,0,0,0,.758-.668l.855-3.056a.929.929,0,0,0-.768-1.17,6.482,6.482,0,0,0-.874-.059c-4.693,0-9.341,4.9-11.3,11.913-1.151,4.115-1.489,10.3,1.348,14.2A8.466,8.466,0,0,0,57.7,37.425h.037a8.237,8.237,0,0,0,7.172-12.278Z" transform="translate(-30.567 -7.858)"/></g></g></svg>