<svg width="24" height="26" viewBox="0 0 24 26" fill="none" xmlns="http://www.w3.org/2000/svg">
<path fill-rule="evenodd" clip-rule="evenodd" d="M14 5.68295V5.9894C16.8915 6.89914 19 9.73081 19 13.0831V18.3689C19.5523 18.3689 20 18.8166 20 19.3689V19.4261C20 20.0099 19.5267 20.4832 18.9428 20.4832H5.05717C4.47331 20.4832 4 20.0099 4 19.4261V19.3689C4 18.8166 4.44772 18.3689 5 18.3689V13.0831C5 9.73081 7.10851 6.89914 10 5.9894V5.68295C10 4.51524 10.8954 3.56862 12 3.56862C13.1046 3.56862 14 4.51524 14 5.68295ZM7 18.3689H17V13.0831C17 10.1638 14.7614 7.79728 12 7.79728C9.23858 7.79728 7 10.1638 7 13.0831V18.3689ZM14 20.4832H10C10 21.651 10.8954 22.5976 12 22.5976C13.1046 22.5976 14 21.651 14 20.4832Z" fill="#BDBDBD"/>
</svg>
