<svg xmlns="http://www.w3.org/2000/svg" width="19.628" height="16.327" viewBox="0 0 19.628 16.327"><defs><style>.a{fill:#fff;}</style></defs><path class="a" d="M19.316,36.39a7.772,7.772,0,0,1-1.353.456,4.22,4.22,0,0,0,1.114-1.774h0a.221.221,0,0,0-.324-.258h0a7.809,7.809,0,0,1-2.069.855.527.527,0,0,1-.129.016.548.548,0,0,1-.362-.138,4.232,4.232,0,0,0-2.8-1.057,4.524,4.524,0,0,0-1.341.207,4.1,4.1,0,0,0-2.763,2.954,4.514,4.514,0,0,0-.1,1.558.152.152,0,0,1-.038.119.157.157,0,0,1-.117.053H9.019a11.1,11.1,0,0,1-7.626-4.074h0a.221.221,0,0,0-.363.028h0a4.236,4.236,0,0,0,.688,5.144A3.792,3.792,0,0,1,.753,40.1h0a.221.221,0,0,0-.329.191h0A4.237,4.237,0,0,0,2.9,44.2h-.09a3.808,3.808,0,0,1-.713-.068h0a.221.221,0,0,0-.252.285h0A4.241,4.241,0,0,0,5.19,47.3,7.809,7.809,0,0,1,.817,48.63H.327a.324.324,0,0,0-.317.244.335.335,0,0,0,.16.37,11.614,11.614,0,0,0,5.836,1.574,11.774,11.774,0,0,0,4.987-1.058,11.013,11.013,0,0,0,3.649-2.734,11.989,11.989,0,0,0,2.234-3.742,11.822,11.822,0,0,0,.76-4.1v-.064a.72.72,0,0,1,.269-.56,8.364,8.364,0,0,0,1.683-1.847h0a.221.221,0,0,0-.274-.325Z" transform="translate(0 -34.491)"/></svg>