<svg xmlns="http://www.w3.org/2000/svg" width="99.258" height="71.795" viewBox="0 0 99.258 71.795"><defs><style>.a{fill:#091a52;}</style></defs><g transform="translate(-5.1 -13.6)"><path class="a" d="M8.288,15.194A1.594,1.594,0,1,1,6.694,13.6,1.585,1.585,0,0,1,8.288,15.194Z" transform="translate(0 0)"/><circle class="a" cx="1.594" cy="1.594" r="1.594" transform="translate(18.821 13.6)"/><circle class="a" cx="1.594" cy="1.594" r="1.594" transform="translate(32.543 13.6)"/><path class="a" d="M212.388,15.194a1.594,1.594,0,1,1-1.594-1.594A1.585,1.585,0,0,1,212.388,15.194Z" transform="translate(-162.916 0)"/><circle class="a" cx="1.594" cy="1.594" r="1.594" transform="translate(60.006 13.6)"/><circle class="a" cx="1.594" cy="1.594" r="1.594" transform="translate(73.727 13.6)"/><circle class="a" cx="1.594" cy="1.594" r="1.594" transform="translate(87.449 13.6)"/><circle class="a" cx="1.594" cy="1.594" r="1.594" transform="translate(101.17 13.6)"/><path class="a" d="M8.288,83.194A1.594,1.594,0,1,1,6.694,81.6,1.585,1.585,0,0,1,8.288,83.194Z" transform="translate(0 -54.279)"/><circle class="a" cx="1.594" cy="1.594" r="1.594" transform="translate(18.821 27.321)"/><circle class="a" cx="1.594" cy="1.594" r="1.594" transform="translate(32.543 27.321)"/><path class="a" d="M212.388,83.194a1.594,1.594,0,1,1-1.594-1.594A1.585,1.585,0,0,1,212.388,83.194Z" transform="translate(-162.916 -54.279)"/><circle class="a" cx="1.594" cy="1.594" r="1.594" transform="translate(60.006 27.321)"/><circle class="a" cx="1.594" cy="1.594" r="1.594" transform="translate(73.727 27.321)"/><circle class="a" cx="1.594" cy="1.594" r="1.594" transform="translate(87.449 27.321)"/><circle class="a" cx="1.594" cy="1.594" r="1.594" transform="translate(101.17 27.321)"/><path class="a" d="M8.288,151.194A1.594,1.594,0,1,1,6.694,149.6,1.585,1.585,0,0,1,8.288,151.194Z" transform="translate(0 -108.557)"/><circle class="a" cx="1.594" cy="1.594" r="1.594" transform="translate(18.821 41.043)"/><circle class="a" cx="1.594" cy="1.594" r="1.594" transform="translate(32.543 41.043)"/><path class="a" d="M212.388,151.194a1.594,1.594,0,1,1-1.594-1.594A1.585,1.585,0,0,1,212.388,151.194Z" transform="translate(-162.916 -108.557)"/><circle class="a" cx="1.594" cy="1.594" r="1.594" transform="translate(60.006 41.043)"/><circle class="a" cx="1.594" cy="1.594" r="1.594" transform="translate(73.727 41.043)"/><circle class="a" cx="1.594" cy="1.594" r="1.594" transform="translate(87.449 41.043)"/><circle class="a" cx="1.594" cy="1.594" r="1.594" transform="translate(101.17 41.043)"/><path class="a" d="M8.288,219.194A1.594,1.594,0,1,1,6.694,217.6,1.585,1.585,0,0,1,8.288,219.194Z" transform="translate(0 -162.836)"/><circle class="a" cx="1.594" cy="1.594" r="1.594" transform="translate(18.821 54.764)"/><circle class="a" cx="1.594" cy="1.594" r="1.594" transform="translate(32.543 54.764)"/><path class="a" d="M212.388,219.194a1.594,1.594,0,1,1-1.594-1.594A1.585,1.585,0,0,1,212.388,219.194Z" transform="translate(-162.916 -162.836)"/><circle class="a" cx="1.594" cy="1.594" r="1.594" transform="translate(60.006 54.764)"/><circle class="a" cx="1.594" cy="1.594" r="1.594" transform="translate(73.727 54.764)"/><circle class="a" cx="1.594" cy="1.594" r="1.594" transform="translate(87.449 54.764)"/><circle class="a" cx="1.594" cy="1.594" r="1.594" transform="translate(101.17 54.764)"/><path class="a" d="M8.288,287.194A1.594,1.594,0,1,1,6.694,285.6,1.585,1.585,0,0,1,8.288,287.194Z" transform="translate(0 -217.114)"/><circle class="a" cx="1.594" cy="1.594" r="1.594" transform="translate(18.821 68.486)"/><circle class="a" cx="1.594" cy="1.594" r="1.594" transform="translate(32.543 68.486)"/><path class="a" d="M212.388,287.194a1.594,1.594,0,1,1-1.594-1.594A1.585,1.585,0,0,1,212.388,287.194Z" transform="translate(-162.916 -217.114)"/><circle class="a" cx="1.594" cy="1.594" r="1.594" transform="translate(60.006 68.486)"/><circle class="a" cx="1.594" cy="1.594" r="1.594" transform="translate(73.727 68.486)"/><circle class="a" cx="1.594" cy="1.594" r="1.594" transform="translate(87.449 68.486)"/><circle class="a" cx="1.594" cy="1.594" r="1.594" transform="translate(101.17 68.486)"/><path class="a" d="M8.288,355.194A1.594,1.594,0,1,1,6.694,353.6,1.585,1.585,0,0,1,8.288,355.194Z" transform="translate(0 -271.393)"/><circle class="a" cx="1.594" cy="1.594" r="1.594" transform="translate(18.821 82.207)"/><circle class="a" cx="1.594" cy="1.594" r="1.594" transform="translate(32.543 82.207)"/><path class="a" d="M212.388,355.194a1.594,1.594,0,1,1-1.594-1.594A1.611,1.611,0,0,1,212.388,355.194Z" transform="translate(-162.916 -271.393)"/><circle class="a" cx="1.594" cy="1.594" r="1.594" transform="translate(60.006 82.207)"/><circle class="a" cx="1.594" cy="1.594" r="1.594" transform="translate(73.727 82.207)"/><circle class="a" cx="1.594" cy="1.594" r="1.594" transform="translate(87.449 82.207)"/><circle class="a" cx="1.594" cy="1.594" r="1.594" transform="translate(101.17 82.207)"/></g></svg>