<svg width="25" height="25" viewBox="0 0 25 25" fill="none" xmlns="http://www.w3.org/2000/svg">
<path d="M8.81164 8.27734C8.73864 8.19269 8.68306 8.09448 8.64807 7.98832C8.61308 7.88216 8.59938 7.77014 8.60774 7.65868C8.6161 7.54721 8.64636 7.43849 8.69679 7.33874C8.74722 7.23898 8.81683 7.15016 8.90164 7.07734L11.9016 4.49734C11.9327 4.47373 11.9662 4.4536 12.0016 4.43734C12.0483 4.40477 12.0986 4.37791 12.1516 4.35734H12.3016L12.4316 4.27734H12.5916H12.7416C12.7947 4.29791 12.845 4.32477 12.8916 4.35734C12.9271 4.3736 12.9606 4.39373 12.9916 4.41734L15.9916 6.99734C16.0864 7.06678 16.1658 7.15511 16.2248 7.25677C16.2837 7.35843 16.3209 7.47121 16.3341 7.58798C16.3472 7.70475 16.336 7.82298 16.3011 7.9352C16.2663 8.04742 16.2085 8.15119 16.1316 8.23997C16.0546 8.32875 15.96 8.4006 15.8539 8.45098C15.7477 8.50137 15.6323 8.5292 15.5148 8.53271C15.3973 8.53622 15.2804 8.51534 15.1715 8.47139C15.0625 8.42743 14.9638 8.36136 14.8816 8.27734L13.4316 7.11734V15.1173C13.4316 15.3826 13.3263 15.6369 13.1387 15.8245C12.9512 16.012 12.6969 16.1173 12.4316 16.1173C12.1664 16.1173 11.9121 16.012 11.7245 15.8245C11.537 15.6369 11.4316 15.3826 11.4316 15.1173V7.11734L10.0116 8.34734C9.84322 8.49718 9.62219 8.57399 9.39714 8.56086C9.1721 8.54773 8.96149 8.44575 8.81164 8.27734ZM20.4316 14.2773C20.1664 14.2773 19.9121 14.3827 19.7245 14.5702C19.537 14.7578 19.4316 15.0121 19.4316 15.2773V18.2773C19.4316 18.5426 19.3263 18.7969 19.1387 18.9845C18.9512 19.172 18.6969 19.2773 18.4316 19.2773H6.43164C6.16642 19.2773 5.91207 19.172 5.72453 18.9845C5.537 18.7969 5.43164 18.5426 5.43164 18.2773V15.2773C5.43164 15.0121 5.32628 14.7578 5.13875 14.5702C4.95121 14.3827 4.69686 14.2773 4.43164 14.2773C4.16642 14.2773 3.91207 14.3827 3.72453 14.5702C3.537 14.7578 3.43164 15.0121 3.43164 15.2773V18.2773C3.43164 19.073 3.74771 19.8361 4.31032 20.3987C4.87293 20.9613 5.63599 21.2773 6.43164 21.2773H18.4316C19.2273 21.2773 19.9904 20.9613 20.553 20.3987C21.1156 19.8361 21.4316 19.073 21.4316 18.2773V15.2773C21.4316 15.0121 21.3263 14.7578 21.1387 14.5702C20.9512 14.3827 20.6969 14.2773 20.4316 14.2773Z" fill="#0D2576"/>
</svg>
