<svg width="24" height="24" viewBox="0 0 24 24" fill="none" xmlns="http://www.w3.org/2000/svg">
<path d="M7 13H3C2.73478 13 2.48043 12.8946 2.29289 12.7071C2.10536 12.5196 2 12.2652 2 12C2 11.7348 2.10536 11.4804 2.29289 11.2929C2.48043 11.1054 2.73478 11 3 11H7C7.26522 11 7.51957 11.1054 7.70711 11.2929C7.89464 11.4804 8 11.7348 8 12C8 12.2652 7.89464 12.5196 7.70711 12.7071C7.51957 12.8946 7.26522 13 7 13ZM7.73 9.14C7.91736 9.32625 8.17081 9.43079 8.435 9.43079C8.69919 9.43079 8.95264 9.32625 9.14 9.14C9.23373 9.04704 9.30812 8.93644 9.35889 8.81458C9.40966 8.69272 9.4358 8.56201 9.4358 8.43C9.4358 8.29799 9.40966 8.16728 9.35889 8.04542C9.30812 7.92356 9.23373 7.81296 9.14 7.72L6.31 4.9C6.1187 4.73617 5.87262 4.65057 5.62095 4.66029C5.36927 4.67001 5.13053 4.77434 4.95244 4.95244C4.77434 5.13053 4.67001 5.36927 4.66029 5.62095C4.65057 5.87262 4.73617 6.1187 4.9 6.31L7.73 9.14ZM12 2C11.7348 2 11.4804 2.10536 11.2929 2.29289C11.1054 2.48043 11 2.73478 11 3V7C11 7.26522 11.1054 7.51957 11.2929 7.70711C11.4804 7.89464 11.7348 8 12 8C12.2652 8 12.5196 7.89464 12.7071 7.70711C12.8946 7.51957 13 7.26522 13 7V3C13 2.73478 12.8946 2.48043 12.7071 2.29289C12.5196 2.10536 12.2652 2 12 2ZM21 11H17C16.7348 11 16.4804 11.1054 16.2929 11.2929C16.1054 11.4804 16 11.7348 16 12C16 12.2652 16.1054 12.5196 16.2929 12.7071C16.4804 12.8946 16.7348 13 17 13H21C21.2652 13 21.5196 12.8946 21.7071 12.7071C21.8946 12.5196 22 12.2652 22 12C22 11.7348 21.8946 11.4804 21.7071 11.2929C21.5196 11.1054 21.2652 11 21 11ZM12 16C11.7348 16 11.4804 16.1054 11.2929 16.2929C11.1054 16.4804 11 16.7348 11 17V21C11 21.2652 11.1054 21.5196 11.2929 21.7071C11.4804 21.8946 11.7348 22 12 22C12.2652 22 12.5196 21.8946 12.7071 21.7071C12.8946 21.5196 13 21.2652 13 21V17C13 16.7348 12.8946 16.4804 12.7071 16.2929C12.5196 16.1054 12.2652 16 12 16ZM16.2 14.79C16.107 14.6963 15.9964 14.6219 15.8746 14.5711C15.7527 14.5203 15.622 14.4942 15.49 14.4942C15.358 14.4942 15.2273 14.5203 15.1054 14.5711C14.9836 14.6219 14.873 14.6963 14.78 14.79C14.5937 14.9774 14.4892 15.2308 14.4892 15.495C14.4892 15.7592 14.5937 16.0126 14.78 16.2L17.61 19C17.7965 19.1802 18.0457 19.281 18.305 19.281C18.5643 19.281 18.8135 19.1802 19 19C19.1863 18.8126 19.2908 18.5592 19.2908 18.295C19.2908 18.0308 19.1863 17.7774 19 17.59L16.2 14.79ZM7.75 14.79L4.92 17.63C4.82676 17.7226 4.75267 17.8326 4.70196 17.9538C4.65125 18.0751 4.62491 18.2051 4.62444 18.3365C4.62398 18.4679 4.6494 18.5981 4.69925 18.7196C4.74911 18.8412 4.82242 18.9518 4.915 19.045C5.00758 19.1382 5.11762 19.2123 5.23884 19.263C5.36005 19.3138 5.49007 19.3401 5.62146 19.3406C5.75286 19.341 5.88306 19.3156 6.00463 19.2657C6.1262 19.2159 6.23676 19.1426 6.33 19.05L9.16 16.22C9.25373 16.127 9.32812 16.0164 9.37889 15.8946C9.42966 15.7727 9.4558 15.642 9.4558 15.51C9.4558 15.378 9.42966 15.2473 9.37889 15.1254C9.32812 15.0036 9.25373 14.893 9.16 14.8C8.97264 14.6137 8.71919 14.5092 8.455 14.5092C8.19081 14.5092 7.93736 14.6137 7.75 14.8V14.79ZM16.25 9.11L19.08 6.3C19.1737 6.20704 19.2481 6.09644 19.2989 5.97458C19.3497 5.85272 19.3758 5.72201 19.3758 5.59C19.3758 5.45799 19.3497 5.32728 19.2989 5.20542C19.2481 5.08356 19.1737 4.97296 19.08 4.88C18.8926 4.69375 18.6392 4.58921 18.375 4.58921C18.1108 4.58921 17.8574 4.69375 17.67 4.88L14.84 7.71C14.6762 7.9013 14.5906 8.14738 14.6003 8.39905C14.61 8.65073 14.7143 8.88947 14.8924 9.06756C15.0705 9.24566 15.3093 9.34999 15.5609 9.35971C15.8126 9.36943 16.0587 9.28383 16.25 9.12V9.11Z" fill="#0D2576"/>
</svg>
