<svg xmlns="http://www.w3.org/2000/svg" width="45.527" height="49.471" viewBox="0 0 45.527 49.471"><defs><style>.a{fill:#f47741;}.b{fill:#fff;}</style></defs><g transform="translate(-20.408 0)"><g transform="translate(37.701 8.155)"><path class="a" d="M204.122,92.482l2.645-2.643a2.208,2.208,0,0,1,0-3.124l-4.256-4.253a2.212,2.212,0,0,1-3.127,0l-10.027,10.02h14.766Z" transform="translate(-189.357 -82.463)"/></g><g transform="translate(20.408 -0.001)"><g transform="translate(0 0)"><path class="a" d="M62.223,38.354v7.683a1.507,1.507,0,0,1-1.509,1.5H28.347V19.859H60.714a1.507,1.507,0,0,1,1.509,1.5v7.683h1.94V21.361a3.444,3.444,0,0,0-2.788-3.371l1.612-1.605a2.928,2.928,0,0,0,0-4.154L51.563.858a2.961,2.961,0,0,0-4.17,0L30.248,17.927H23.857a3.445,3.445,0,0,0-3.449,3.434V46.037a3.445,3.445,0,0,0,3.449,3.434H60.714a3.445,3.445,0,0,0,3.449-3.434V38.354h-1.94ZM48.764,2.225a1.014,1.014,0,0,1,1.428,0L61.616,13.6a1,1,0,0,1,0,1.419l-2.922,2.909h-25.7ZM26.407,47.538h-2.55a1.507,1.507,0,0,1-1.509-1.5V21.361a1.507,1.507,0,0,1,1.509-1.5h2.55Z" transform="translate(-20.408 0.001)"/></g></g><path class="a" d="M333.01,300.892H322.748a5.155,5.155,0,0,1,0-10.311H333.01Z" transform="translate(-267.075 -261.819)"/><g transform="translate(52.611 30.865)"><path class="b" d="M352.148,321.421a2.944,2.944,0,1,1,2.946-2.944A2.949,2.949,0,0,1,352.148,321.421Zm0-4.117a1.172,1.172,0,1,0,1.174,1.172A1.174,1.174,0,0,0,352.148,317.3Z" transform="translate(-349.202 -315.532)"/></g></g></svg>