<svg xmlns="http://www.w3.org/2000/svg" width="15.197" height="10.448" viewBox="0 0 15.197 10.448"><defs><style>.a{fill:#fff;}</style></defs><g transform="translate(0 -80)"><g transform="translate(0 80)"><path class="a" d="M14.551,81.007c-.412-.733-.86-.868-1.77-.919S9.583,80,7.6,80s-4.275.026-5.184.086-1.357.186-1.773.92S0,83,0,85.221v.008c0,2.211.218,3.482.643,4.207s.863.866,1.772.928,3.2.085,5.185.085,4.27-.031,5.181-.084,1.358-.195,1.77-.928c.428-.725.645-2,.645-4.207v-.008C15.2,83,14.98,81.739,14.551,81.007ZM5.7,88.073v-5.7l4.749,2.849Z" transform="translate(0 -80)"/></g></g></svg>